<?xml version="1.0" encoding="utf-8" ?>
<svg xmlns="http://www.w3.org/2000/svg" xmlns:xlink="http://www.w3.org/1999/xlink" width="768" height="1024">
	<path fill="#3F3E43" transform="scale(0.750183 0.750183)" d="M221.488 909.77C228.574 910.305 235.454 909.296 242.518 909.091C251.157 908.839 259.723 909.435 268.342 909.466C275.558 909.492 295.634 907.291 301.546 910.794C275.363 926.322 248.118 940.173 221.557 955.051C221.102 939.911 221.419 924.901 221.488 909.77Z"/>
	<path fill="#3F3E43" transform="scale(0.750183 0.750183)" d="M803.423 909.759C803.231 925.113 803.487 940.477 803.42 955.834C776.843 942.022 749.087 926.869 723.473 911.448C731.206 909.449 739.247 909.991 747.17 910L784.183 910.059C790.504 910.057 797.141 910.451 803.423 909.759Z"/>
	<path fill="#E07A5F" transform="scale(0.750183 0.750183)" d="M738.897 143.691C750.369 146.67 761.868 149.625 773.079 153.496Q778.246 155.262 783.351 157.198Q788.455 159.135 793.493 161.242Q798.53 163.348 803.495 165.621Q808.459 167.894 813.345 170.332Q818.23 172.769 823.032 175.368Q827.834 177.967 832.546 180.725Q837.258 183.483 841.876 186.397Q846.494 189.31 851.012 192.376Q855.529 195.442 859.943 198.657Q864.356 201.872 868.659 205.233Q872.962 208.594 877.151 212.096Q881.34 215.598 885.409 219.238Q889.479 222.878 893.425 226.652Q897.371 230.426 901.188 234.329Q905.006 238.233 908.692 242.261Q912.377 246.29 915.926 250.439C927.468 263.953 938.135 277.825 947.158 293.161C959.591 314.292 970.743 336.361 978.983 359.488Q979.993 362.387 980.95 365.304Q981.908 368.22 982.812 371.154Q983.716 374.088 984.567 377.037Q985.417 379.987 986.214 382.951Q987.011 385.916 987.755 388.895Q988.498 391.873 989.187 394.865Q989.875 397.856 990.51 400.86Q991.144 403.863 991.724 406.878Q992.304 409.892 992.829 412.917Q993.354 415.942 993.824 418.975Q994.294 422.009 994.709 425.051Q995.124 428.092 995.484 431.141Q995.843 434.19 996.147 437.244Q996.452 440.299 996.7 443.359Q996.949 446.419 997.142 449.482Q997.335 452.546 997.472 455.613Q997.61 458.68 997.692 461.748Q997.773 464.817 997.799 467.887Q997.825 470.956 997.795 474.026Q997.766 477.096 997.68 480.165Q997.595 483.233 997.454 486.3Q997.312 489.366 997.116 492.43Q996.919 495.493 996.666 498.553Q996.414 501.612 996.106 504.667Q995.798 507.721 995.435 510.769Q995.071 513.817 994.653 516.859Q994.234 519.9 993.76 522.933Q993.287 525.966 992.758 528.99Q992.229 532.014 991.646 535.028Q991.062 538.041 990.424 541.044Q989.786 544.047 989.093 547.038Q988.401 550.028 987.654 553.006Q986.268 558.283 984.695 563.507Q983.122 568.732 981.365 573.897Q979.608 579.062 977.668 584.162Q975.728 589.261 973.609 594.289Q971.489 599.316 969.192 604.265Q966.895 609.214 964.423 614.078Q961.952 618.942 959.309 623.715Q956.667 628.489 953.856 633.165C949.113 640.886 943.323 647.924 938.576 655.59Q939.269 700.885 938.962 746.184C938.962 763.649 940.834 786.13 937.199 802.949Q936.81 804.734 936.302 806.49Q935.794 808.246 935.17 809.963Q934.546 811.681 933.808 813.353Q933.07 815.025 932.223 816.644Q931.375 818.263 930.421 819.822Q929.467 821.38 928.41 822.872Q927.354 824.363 926.2 825.78Q925.047 827.198 923.801 828.535C912.04 840.908 895.613 844.502 879.153 844.829C871.07 844.99 862.975 844.752 854.897 845.038C855.107 834.208 854.567 823.283 854.578 812.436Q854.824 767.001 854.579 721.567L854.781 534.31L854.792 429.495C854.922 406.11 856.223 382.538 854.01 359.214Q853.034 349.553 851.444 339.974Q849.854 330.395 847.656 320.937Q845.458 311.479 842.661 302.18Q839.865 292.881 836.48 283.78C820.398 239.989 795.802 201.596 763.863 167.67C755.938 159.252 746.677 152.197 738.897 143.691ZM891.557 548.834Q892.443 626.061 891.756 703.291L891.691 740.591C891.661 746.271 890.845 753.336 891.871 758.851C892.074 759.939 892.08 759.708 892.896 760.286C900.07 760.794 906.267 757.988 913.478 760.585C913.94 751.465 913.566 742.21 913.441 733.08L913.101 699.329C912.776 677.193 913.15 655.054 912.804 632.916C912.681 625.039 912.255 552.712 914.095 550.408C917.098 546.648 927.98 544.626 933.317 538.883C935.397 536.643 936.491 534.414 936.928 531.394C938.902 517.789 937.482 496.103 937.466 481.723L937.441 427.164C937.443 418.978 937.736 410.739 937.51 402.562C937.391 398.26 936.493 392.311 933.079 389.32C931.998 388.373 930.662 387.962 929.244 388.272C925.796 389.026 923.586 392.785 922.781 395.945C920.957 403.111 922.433 412.781 922.529 420.251C922.685 432.455 924.195 498.831 920.764 504.306C919.992 505.539 919.384 505.805 918.031 506.195C917.279 506.034 916.593 505.886 915.956 505.423C913.499 503.636 912.425 500.181 912.037 497.306C911.089 490.294 911.967 482.272 912.053 475.178C912.26 458.16 912.005 441.135 912.084 424.116C912.124 415.46 913.228 406.195 911.968 397.621C911.578 394.974 910.74 391.398 908.356 389.792C906.719 388.689 904.147 388.151 902.244 388.782C898.786 389.929 897.213 394.253 896.596 397.484C895.153 405.033 896.268 413.692 896.353 421.378L896.413 466.404C896.504 476.243 897.282 486.525 896.544 496.324C896.388 498.397 895.99 500.98 894.796 502.746C894.118 503.75 893.228 504.525 891.973 504.64C890.689 504.757 889.408 504.227 888.506 503.333C886.798 501.639 886.341 498.595 886.157 496.312C885.595 489.339 885.995 482.111 886.063 475.119L886.362 442.75C886.641 426.235 886.054 409.847 885.527 393.348C884.393 391.937 883.195 390.519 881.679 389.498C880.332 388.59 878.376 387.832 876.749 388.361C874.902 388.961 873.629 391.003 872.856 392.663C871.491 395.592 870.882 398.861 870.649 402.07C870.174 408.596 870.549 415.328 870.549 421.876L870.531 460.651L870.476 499.542C870.434 507.677 870.06 515.904 870.567 524.026C870.772 527.293 871.341 530.812 872.542 533.865C875.612 541.667 884.495 545.547 891.557 548.834Z"/>
	<path fill="#F4F1DE" transform="scale(0.750183 0.750183)" d="M892.896 760.286C900.07 760.794 906.267 757.988 913.478 760.585C915.513 764.199 919.737 766.339 921.646 769.915C923.879 774.1 924.355 779.99 923.068 784.524C921.584 789.758 917.856 793.968 913.144 796.584Q912.66 796.858 912.162 797.108Q911.665 797.357 911.156 797.581Q910.646 797.806 910.126 798.004Q909.606 798.202 909.077 798.373Q908.547 798.545 908.01 798.689Q907.473 798.834 906.929 798.951Q906.385 799.069 905.835 799.158Q905.286 799.248 904.733 799.31Q904.18 799.372 903.625 799.406Q903.069 799.439 902.513 799.445Q901.956 799.451 901.4 799.428Q900.844 799.406 900.29 799.356Q899.736 799.305 899.185 799.227Q898.634 799.149 898.088 799.043Q897.541 798.937 897.001 798.803Q896.461 798.67 895.928 798.509C890.767 796.953 886.161 793.482 883.632 788.672C881.543 784.7 880.312 777.977 881.786 773.619C883.091 769.761 889.221 762.022 892.896 760.286Z"/>
	<path fill="#E07A5F" transform="scale(0.750183 0.750183)" d="M84.764 655.133C62.5874 628.12 42.9923 577.697 35.4107 543.388Q34.5147 539.319 33.7186 535.229Q32.9224 531.139 32.2266 527.031Q31.5308 522.923 30.9358 518.799Q30.3407 514.675 29.8468 510.538Q29.3528 506.401 28.9603 502.253Q28.5677 498.105 28.2768 493.948Q27.9859 489.792 27.7968 485.63Q27.6077 481.467 27.5205 477.302Q27.4334 473.136 27.4482 468.97Q27.4629 464.803 27.5797 460.638Q27.6965 456.473 27.9151 452.312Q28.1338 448.151 28.4542 443.997Q28.7747 439.843 29.1967 435.698Q29.6187 431.553 30.142 427.419Q30.6653 423.285 31.2897 419.166Q31.914 415.046 32.639 410.943Q33.3639 406.84 34.1891 402.756Q35.0143 398.672 35.9391 394.61Q36.864 390.547 37.888 386.508Q38.912 382.469 40.0346 378.457Q41.1572 374.444 42.3776 370.461Q43.598 366.477 44.9156 362.524Q46.2331 358.571 47.647 354.652Q49.061 350.732 50.5704 346.849Q52.0798 342.965 53.6838 339.12Q55.2878 335.274 56.9854 331.469Q58.683 327.664 60.4733 323.902Q62.2635 320.14 64.1453 316.422Q66.0271 312.705 67.9993 309.034Q69.9715 305.364 72.0329 301.743Q74.0944 298.122 76.2438 294.553Q78.3932 290.984 80.6294 287.468Q82.6319 284.387 84.6999 281.349Q86.7679 278.311 88.9003 275.318Q91.0327 272.326 93.2287 269.379Q95.4246 266.433 97.683 263.534Q99.9415 260.635 102.261 257.785Q104.581 254.935 106.962 252.135Q109.342 249.335 111.781 246.587Q114.221 243.839 116.719 241.143Q119.217 238.448 121.772 235.807Q124.326 233.165 126.937 230.579Q129.548 227.993 132.213 225.463Q134.879 222.933 137.598 220.461Q140.317 217.989 143.088 215.576Q145.859 213.162 148.681 210.808Q151.503 208.455 154.375 206.162Q157.247 203.869 160.167 201.638Q163.087 199.407 166.054 197.239Q169.022 195.071 172.034 192.967Q175.047 190.863 178.104 188.824Q181.162 186.785 184.262 184.812Q187.362 182.839 190.503 180.932Q193.645 179.025 196.826 177.186Q200.008 175.348 203.228 173.577Q206.448 171.806 209.706 170.105Q212.963 168.404 216.256 166.773Q219.549 165.142 222.876 163.581Q226.203 162.021 229.563 160.532Q232.922 159.043 236.313 157.626Q239.704 156.209 243.124 154.865Q246.544 153.521 249.992 152.251Q253.441 150.98 256.915 149.783Q260.39 148.587 263.889 147.465C272.656 144.606 281.614 141.163 290.605 139.192C280.114 149.582 268.904 159.112 258.902 170.021C211.265 221.978 181.501 282.473 172.729 352.602C171.198 364.844 171.824 376.957 170.853 389.157Q171.473 428.923 171.041 468.691C170.967 482.608 170.63 496.492 171.025 510.41L170.974 735.824C170.978 772.55 171.834 809.42 171.009 846.119C145.372 844.979 121.282 849.172 101.147 829.036C94.0494 821.938 88.6141 812.607 86.3149 802.812C81.9231 784.101 84.462 762.915 84.5297 743.818L84.764 655.133ZM129.419 522.39L129.463 760.356C124.312 765.409 118.904 770.384 118.783 778.164C118.693 783.991 121.634 790.658 125.8 794.685Q126.159 795.031 126.534 795.358Q126.91 795.685 127.301 795.993Q127.692 796.302 128.098 796.59Q128.504 796.879 128.924 797.147Q129.344 797.416 129.776 797.663Q130.209 797.91 130.653 798.136Q131.097 798.361 131.552 798.565Q132.006 798.768 132.47 798.949Q132.935 799.13 133.407 799.287Q133.88 799.445 134.36 799.579Q134.839 799.713 135.325 799.823Q135.811 799.934 136.301 800.02Q136.792 800.106 137.286 800.168Q137.781 800.23 138.277 800.267Q138.774 800.304 139.272 800.317Q139.77 800.33 140.268 800.318C146.151 800.15 151.788 797.182 155.764 792.926C159.643 788.774 162.047 783.023 161.614 777.297C161.091 770.379 156.659 765.333 152.086 760.586Q151.282 682.379 151.548 604.172L151.798 549.98C151.764 541.074 152.186 531.566 151.175 522.722C158.479 519.42 164.783 515.426 171.025 510.41C170.63 496.492 170.967 482.608 171.041 468.691Q171.473 428.923 170.853 389.157C162.54 378.596 152.781 361.264 137.861 359.837C131.041 359.185 124.553 363.391 119.616 367.68C98.843 385.725 86.9447 418.995 85.2081 445.826C83.8732 466.451 88.8934 489.096 102.785 504.933C109.921 513.068 118.856 519.58 129.419 522.39Z"/>
	<path fill="#3D405B" transform="scale(0.750183 0.750183)" d="M290.605 139.192C290.898 139.039 291.192 138.89 291.483 138.733C298.427 135.002 304.703 128.829 311.194 124.292C323.652 115.583 337.06 107.586 350.478 100.434C426.598 59.8623 520.807 48.4896 604.033 71.9226C642.358 82.7133 676.848 100.168 709.832 122.273Q716.905 127.073 723.624 132.358C728.104 135.876 733.615 141.589 738.897 143.691C746.677 152.197 755.938 159.252 763.863 167.67C795.802 201.596 820.398 239.989 836.48 283.78Q839.865 292.881 842.661 302.18Q845.458 311.479 847.656 320.937Q849.854 330.395 851.444 339.974Q853.034 349.553 854.01 359.214C856.223 382.538 854.922 406.11 854.792 429.495L854.781 534.31L854.579 721.567Q854.824 767.001 854.578 812.436C854.567 823.283 855.107 834.208 854.897 845.038C854.62 863.624 855.3 884.144 840.831 898.139C832.845 905.862 822.832 908.755 811.984 909.297C809.406 909.425 805.811 909.064 803.423 909.759C797.141 910.451 790.504 910.057 784.183 910.059L747.17 910C739.247 909.991 731.206 909.449 723.473 911.448C719.972 909.614 716.568 909.34 712.712 909.241C684.048 908.508 655.297 909.4 626.624 909.39L437.962 909.401L349.685 909.17C338.39 909.173 311.125 908.001 301.546 910.794C295.634 907.291 275.558 909.492 268.342 909.466C259.723 909.435 251.157 908.839 242.518 909.091C235.454 909.296 228.574 910.305 221.488 909.77C217.881 909.04 213.833 909.234 210.141 908.903C200.073 908 190.86 903.186 183.842 895.978C170.333 882.104 170.72 864.234 171.009 846.119C171.834 809.42 170.978 772.55 170.974 735.824L171.025 510.41C170.63 496.492 170.967 482.608 171.041 468.691Q171.473 428.923 170.853 389.157C171.824 376.957 171.198 364.844 172.729 352.602C181.501 282.473 211.265 221.978 258.902 170.021C268.904 159.112 280.114 149.582 290.605 139.192ZM501.214 137.299C485.309 138.422 469.315 140.169 453.737 143.654Q451.205 144.237 448.685 144.869Q446.164 145.502 443.657 146.183Q441.15 146.865 438.656 147.596Q436.163 148.327 433.684 149.106Q431.206 149.886 428.743 150.714Q426.28 151.542 423.834 152.418Q421.388 153.294 418.959 154.218Q416.531 155.142 414.121 156.113Q411.711 157.085 409.32 158.103Q406.93 159.122 404.56 160.187Q402.19 161.252 399.841 162.363Q397.493 163.475 395.166 164.632Q392.84 165.789 390.537 166.992Q388.234 168.195 385.954 169.442Q383.675 170.69 381.421 171.982Q379.167 173.274 376.938 174.61Q374.71 175.946 372.508 177.326Q370.306 178.705 368.131 180.128Q365.957 181.55 363.811 183.015Q361.665 184.48 359.548 185.986Q357.431 187.493 355.344 189.041Q353.257 190.588 351.201 192.177Q349.144 193.765 347.12 195.394Q345.095 197.022 343.103 198.69Q341.11 200.358 339.151 202.065Q337.192 203.771 335.266 205.516Q333.341 207.261 331.45 209.043Q329.559 210.825 327.704 212.644Q325.848 214.463 324.029 216.318Q322.209 218.173 320.427 220.063Q318.644 221.954 316.899 223.878Q315.153 225.803 313.446 227.762Q310.218 231.457 307.133 235.273Q304.049 239.088 301.112 243.019Q298.175 246.949 295.39 250.989Q292.605 255.029 289.976 259.172Q287.347 263.315 284.879 267.555Q282.41 271.795 280.104 276.126Q277.799 280.457 275.661 284.874Q273.522 289.29 271.554 293.784C251.177 340.138 249.365 371.863 249.438 421.743L249.546 482.635L249.625 554.375C249.635 569.204 249.166 584.16 250.209 598.957L250.312 600.325C242.581 609.838 237.599 620.498 238.85 633.061C239.765 642.245 244.141 650.094 249.776 657.227L249.687 756.634C249.641 773.82 248.388 795.076 250.326 811.714C250.863 816.318 251.614 821.338 254.948 824.804C261.115 831.214 271.29 830.923 279.513 830.872L513.125 830.681L686.128 830.61L732.043 830.699C740.287 830.792 749.096 831.792 757.284 830.815Q758.176 830.708 759.056 830.528Q759.937 830.349 760.8 830.1Q761.663 829.85 762.503 829.532Q763.343 829.214 764.155 828.829Q764.967 828.444 765.745 827.994Q766.523 827.545 767.262 827.034Q768.001 826.524 768.697 825.955Q769.392 825.387 770.04 824.764C773.863 821.024 775.496 816.382 775.986 811.15C777.543 794.498 776.502 777.071 776.463 760.327L776.4 670.093L776.087 486.022C776.077 458.669 776.665 431.3 776.372 403.951C775.624 333.942 749.583 264.333 699.05 214.909C656.904 173.688 603.981 146.945 545.421 139.289C533.784 137.768 521.997 136.677 510.25 136.85Q505.723 136.9 501.214 137.299Z"/>
	<path fill="#3D405B" transform="scale(0.750183 0.750183)" d="M407.418 290.901C409.101 291.949 416.185 310.035 417.742 312.977C422.128 321.267 427.654 328.758 433.424 336.114C424.121 342.389 414.175 347.432 405.15 354.189C394.843 339.427 384.845 326.2 378.662 309.007C388.205 302.884 398.273 297.651 407.418 290.901Z"/>
	<path fill="#3D405B" transform="scale(0.750183 0.750183)" d="M613.808 292.009C626.482 296.639 646.95 309.751 656.321 319.491Q640.128 331.624 624.79 344.821C621.39 347.484 618.229 350.535 614.891 353.292C607.331 348.245 599.394 344.643 591.539 340.193C602.846 326.357 609.466 309.178 613.808 292.009Z"/>
	<path fill="#3F3E43" transform="scale(0.750183 0.750183)" d="M667.323 684.841C670.278 686.836 672.877 690.534 675.334 693.172L691.05 709.892L720.503 740.99C726.541 747.407 732.973 753.695 738.109 760.87C739.701 763.093 740.343 765.524 740.821 768.178C741.846 773.878 740.702 779.848 737.283 784.568C733.629 789.614 727.368 793.165 721.184 793.954C714.294 794.833 709.467 791.859 704.299 787.802C696.027 781.969 688.274 773.8 680.787 766.925C662.847 750.452 642.619 730.805 623.366 716.297C639.168 707.403 654.238 697.507 667.323 684.841Z"/>
	<path fill="#3D405B" transform="scale(0.750183 0.750183)" d="M323.106 354.584C337.089 359.309 352.877 361.116 364.889 370.306C369.233 373.629 373.048 377.708 377.053 381.432Q375.654 383.248 374.29 385.09Q373.192 386.573 372.125 388.077Q371.058 389.582 370.021 391.108Q368.984 392.634 367.979 394.18Q366.973 395.727 365.999 397.293Q365.025 398.86 364.082 400.446Q363.14 402.032 362.23 403.636Q361.32 405.241 360.442 406.864Q359.565 408.486 358.72 410.126Q357.876 411.766 357.064 413.423Q356.253 415.08 355.476 416.753Q354.698 418.426 353.955 420.114Q353.211 421.802 352.502 423.505Q351.792 425.208 351.118 426.925Q350.443 428.642 349.803 430.372Q349.163 432.102 348.558 433.845Q347.953 435.588 347.384 437.343Q346.815 439.097 346.281 440.863Q345.747 442.629 345.249 444.405Q344.751 446.181 344.289 447.967Q343.827 449.753 343.401 451.548Q342.975 453.343 342.585 455.146Q342.196 456.949 341.843 458.76Q341.49 460.571 341.173 462.388Q340.857 464.206 340.577 466.029Q340.298 467.852 340.055 469.681Q339.813 471.51 339.607 473.343Q339.401 475.176 339.233 477.013Q339.064 478.851 338.933 480.691Q338.802 482.531 338.707 484.373Q338.613 486.215 338.556 488.059Q338.5 489.903 338.48 491.748Q338.46 493.592 338.478 495.437C338.627 507.616 340.237 519.579 342.028 531.601C332.043 536.004 324.813 542.03 317.92 550.421C314.961 554.94 313.209 559.823 311.387 564.868C303.055 564.856 296.844 566.723 289.155 569.592C286.979 560.202 284.687 550.77 283.129 541.253Q282.72 538.692 282.361 536.124Q282.002 533.555 281.694 530.98Q281.385 528.406 281.127 525.825Q280.869 523.245 280.662 520.659Q280.455 518.074 280.298 515.486Q280.142 512.897 280.036 510.306Q279.93 507.715 279.875 505.122Q279.82 502.529 279.816 499.936Q279.812 497.343 279.859 494.75Q279.906 492.157 280.003 489.565Q280.101 486.974 280.249 484.385Q280.397 481.796 280.596 479.21Q280.795 476.624 281.045 474.043Q281.295 471.462 281.595 468.886Q281.895 466.31 282.246 463.74Q282.597 461.171 282.998 458.609Q283.399 456.047 283.85 453.493Q284.301 450.939 284.802 448.395Q285.304 445.85 285.854 443.316Q286.405 440.782 287.006 438.259Q287.607 435.736 288.256 433.225Q288.906 430.715 289.605 428.217Q290.304 425.72 291.052 423.237Q291.8 420.754 292.596 418.286Q293.392 415.818 294.237 413.366Q295.081 410.914 295.974 408.479Q296.866 406.044 297.806 403.627Q298.746 401.21 299.734 398.812Q300.721 396.414 301.755 394.035Q302.789 391.657 303.869 389.3Q304.95 386.942 306.076 384.606Q307.203 382.27 308.375 379.957C312.758 371.361 317.462 362.418 323.106 354.584Z"/>
	<path fill="#FF905B" transform="scale(0.750183 0.750183)" d="M327.888 586.214C327.37 575.968 328.889 566.093 336.144 558.339C341.72 552.38 349.545 549.431 357.615 549.307C365.734 549.182 373.528 552.141 379.285 557.925C384.309 562.972 386.469 569.149 388.14 575.878C395.916 573.741 403.076 573.578 410.335 577.802C417.614 582.038 422.512 589.47 424.496 597.562C425.132 600.151 425.471 602.853 425.667 605.51C434.81 602.109 443.276 600.186 452.673 604.442C459.515 607.541 465.386 613.336 468.106 620.388C470.774 627.305 470.18 635.324 467.044 641.997C466.444 643.274 465.8 644.538 465.032 645.724C462.286 646.023 454.305 645.924 452.548 647.037C446.746 648.634 428.487 647.927 421.41 647.972L327.247 647.672L294.023 647.634C287.721 647.629 281.277 647.888 275.001 647.359C271.78 646.945 268.583 646.958 265.342 646.946C260.445 640.121 256.456 633.246 257.792 624.431C258.667 618.654 261.63 613.348 266.385 609.892C271.478 606.19 277.133 605.47 283.222 605.48C286.365 596.654 289.798 589.779 298.775 585.601C308.633 581.015 318.007 583.094 327.888 586.214Z"/>
	<path fill="#E07A5F" transform="scale(0.750183 0.750183)" d="M504.177 188.689Q506.202 188.485 508.234 188.377Q510.266 188.269 512.301 188.258Q514.336 188.246 516.369 188.331Q518.402 188.416 520.429 188.596Q522.456 188.777 524.472 189.054Q526.488 189.331 528.488 189.703Q530.489 190.074 532.47 190.54Q534.45 191.007 536.407 191.566Q538.363 192.125 540.291 192.777Q542.219 193.428 544.114 194.17Q546.009 194.912 547.866 195.743Q549.724 196.573 551.54 197.491Q553.356 198.409 555.127 199.412Q556.898 200.414 558.619 201.5Q560.34 202.585 562.008 203.751Q563.676 204.917 565.287 206.16C583.543 220.22 595.154 242.074 598.019 264.803C601.142 289.568 594.818 314.521 579.431 334.276C564.538 353.397 543.475 363.145 519.853 366.117Q517.832 366.288 515.804 366.365Q513.777 366.442 511.749 366.426Q509.72 366.409 507.694 366.299Q505.669 366.188 503.65 365.985Q501.632 365.781 499.625 365.484Q497.618 365.187 495.627 364.797Q493.636 364.408 491.665 363.927Q489.695 363.446 487.748 362.874Q485.802 362.302 483.884 361.641Q481.966 360.98 480.081 360.231Q478.195 359.482 476.347 358.646Q474.498 357.811 472.69 356.891Q470.882 355.971 469.118 354.968Q467.355 353.966 465.639 352.883Q463.924 351.799 462.26 350.638Q460.597 349.477 458.989 348.24C439.609 333.39 427.962 311.922 424.994 287.816C422.102 264.324 427.989 240.434 442.775 221.795C458.36 202.149 479.441 191.477 504.177 188.689ZM509.923 204.211C489.263 205.645 470.722 213.583 456.99 229.424Q455.825 230.792 454.729 232.216Q453.633 233.639 452.609 235.115Q451.584 236.591 450.633 238.116Q449.682 239.64 448.807 241.21Q447.933 242.779 447.136 244.39Q446.34 246 445.623 247.648Q444.907 249.296 444.272 250.977Q443.638 252.658 443.087 254.368Q442.536 256.078 442.07 257.813Q441.603 259.548 441.223 261.304Q440.842 263.06 440.549 264.833Q440.255 266.605 440.049 268.39Q439.843 270.175 439.725 271.968Q439.607 273.761 439.578 275.557Q439.548 277.354 439.606 279.15Q439.665 280.945 439.812 282.736C441.314 301.901 450.65 320.816 465.438 333.229C478.77 344.421 496.909 349.811 514.1 350.332C534.211 348.751 552.18 342.113 565.58 326.5Q566.782 325.095 567.914 323.633Q569.046 322.171 570.105 320.655Q571.164 319.14 572.147 317.574Q573.131 316.008 574.036 314.396Q574.942 312.784 575.767 311.129Q576.592 309.475 577.336 307.782Q578.079 306.089 578.739 304.362Q579.398 302.634 579.972 300.877Q580.546 299.119 581.034 297.335Q581.521 295.552 581.92 293.746Q582.32 291.941 582.63 290.118Q582.941 288.296 583.161 286.46Q583.382 284.624 583.513 282.78Q583.643 280.935 583.683 279.087Q583.723 277.238 583.673 275.39Q583.622 273.542 583.481 271.698C581.834 251.869 572.622 232.801 557.258 219.973C544.23 209.096 526.711 203.903 509.923 204.211Z"/>
	<path fill="#E07A5F" transform="scale(0.750183 0.750183)" d="M477.215 224.689C480.445 224.466 483.165 225.046 486.258 225.859C486.377 226.022 486.5 226.182 486.614 226.348C490.644 232.247 504.285 263.156 502.91 268.545C502.702 269.362 502.398 269.304 501.725 269.67C497.669 269.904 493.031 267.136 489.376 265.491C480.28 261.899 465.277 257.692 458.71 250.439C461.554 239.343 467.27 230.639 477.215 224.689Z"/>
	<path fill="#E07A5F" transform="scale(0.750183 0.750183)" d="M522.177 284.939C532.316 288.697 553.25 295.801 561.46 302.128C562.966 303.289 563.594 304.607 563.749 306.479C564.228 312.229 558.947 318.589 555.479 322.746C554.192 323.992 552.886 325.19 551.445 326.258C546.58 329.864 542.148 329.91 536.422 329.127C532.667 323.801 519.831 294.663 519.705 288.771C519.672 287.243 521.198 285.99 522.177 284.939Z"/>
	<path fill="#E07A5F" transform="scale(0.750183 0.750183)" d="M499.58 285.423C500.109 285.569 501.004 285.743 501.499 286.035C502.053 286.362 502.76 286.794 502.855 287.476C503.638 293.103 492.986 321.795 489.385 326.967C487.871 329.143 486.335 330.036 483.729 330.45C478.377 331.301 474.025 327.841 470.041 324.814C467.005 321.772 464.517 318.516 462.433 314.749C460.952 312.072 459.023 307.973 460.222 304.867C462.435 299.132 492.645 288.569 499.58 285.423Z"/>
	<path fill="#E07A5F" transform="scale(0.750183 0.750183)" d="M509.981 289.392C511.469 289.566 512.664 289.81 514.06 290.363C519.333 296.248 527.556 322.488 530.897 331.252C530.4 332.203 529.858 333.114 529.236 333.991C525.646 339.057 519.678 340.212 513.962 341.208C511.918 341.26 509.756 341.208 507.732 340.901C500.948 339.873 497.063 336.296 493.173 330.984C498.173 321.338 504.91 295.716 509.981 289.392Z"/>
	<path fill="#E07A5F" transform="scale(0.750183 0.750183)" d="M459.597 257.652C463.402 259.084 467.008 260.983 470.762 262.546C479.137 266.032 491.4 269.664 498.44 275.208C499.154 276.483 499.698 278.358 499.154 279.796C498.127 282.509 484.731 287.029 481.621 288.271C476.343 290.581 464.999 296.549 459.566 296.325C457.677 296.247 455.887 295.318 454.644 293.915C450.917 289.71 450.301 282.036 450.686 276.607C451.251 268.654 453.565 262.947 459.597 257.652Z"/>
	<path fill="#E07A5F" transform="scale(0.750183 0.750183)" d="M542.81 224.176C544.005 224.288 545.265 224.381 546.406 224.77C553.315 227.121 560.916 237.116 563.797 243.577C564.719 245.646 565.418 248.011 564.47 250.197C562.035 255.809 541.923 262.317 536.227 264.49Q529.266 267.623 522.269 270.674C521.067 269.606 520.612 268.881 519.949 267.415C520.551 262.595 533.084 229.662 535.913 226.463C537.556 224.606 540.502 224.52 542.81 224.176Z"/>
	<path fill="#E07A5F" transform="scale(0.750183 0.750183)" d="M563.283 257.456C563.929 257.559 563.952 257.539 564.677 257.795C568.362 259.096 570.778 262.399 572.215 265.879C575.15 272.986 575.021 282.185 572.011 289.259C570.839 292.012 568.95 294.838 565.981 295.836C559.776 297.921 548.676 290.885 543.125 288.296C537.074 285.638 530.82 283.469 524.699 280.976C524.526 278.877 524.089 276.777 523.739 274.7C530.157 271.771 536.895 269.489 543.427 266.817C550.22 264.038 556.764 260.82 563.283 257.456Z"/>
	<path fill="#E07A5F" transform="scale(0.750183 0.750183)" d="M503.712 215.792C510.455 215.393 518.038 214.484 524.642 216.267C526.123 216.667 529.386 217.767 530.046 219.304C531.031 221.603 530.074 225.078 529.454 227.401C528.132 232.356 525.774 237.228 523.884 241.995Q519.526 252.958 515.619 264.089C514.958 264.773 514.212 265.43 513.307 265.78C512.04 266.271 511.411 266.123 510.208 265.617C503.779 258.218 495.415 233.442 491.616 223.117C492.22 221.843 492.818 220.553 493.731 219.465C496.36 216.331 499.928 216.145 503.712 215.792Z"/>
	<path fill="#8B483C" transform="scale(0.750183 0.750183)" d="M452.548 647.037C452.424 660.551 452.936 674.061 452.955 687.577C452.982 706.897 452.605 726.27 453.133 745.582C453.525 759.949 454.224 776.506 443.544 787.607Q442.696 788.477 441.792 789.289Q440.888 790.1 439.931 790.849Q438.974 791.597 437.969 792.28Q436.964 792.962 435.915 793.576Q434.867 794.189 433.779 794.731Q432.692 795.273 431.57 795.74Q430.449 796.207 429.298 796.598Q428.148 796.989 426.974 797.301C416.66 799.963 404.944 798.785 394.342 798.833C375.899 798.916 357.45 798.691 339.008 799.017C320.807 799.34 299.899 802.283 285.709 788.365C280.561 783.315 277.696 777.388 276.254 770.361C273.317 756.051 275.015 740.119 275.037 725.536L275.001 647.359C281.277 647.888 287.721 647.629 294.023 647.634L327.247 647.672L421.41 647.972C428.487 647.927 446.746 648.634 452.548 647.037Z"/>
	<path fill="#3D405B" transform="scale(0.750183 0.750183)" d="M337.223 283.442C348.088 289.78 359.11 295.78 369.82 302.388C381.996 345.432 406.334 366.038 436.248 396.603L480.331 442.538C486.266 438.773 493.435 436.1 500.3 434.673C514.775 431.665 531.223 433.238 543.73 441.496L623.674 361.289L620.013 357.956C634.326 344.863 650.241 333.223 665.097 320.719C672.434 314.545 678.851 306.932 686.489 301.211C688.974 299.35 691.784 297.681 694.92 297.301C697.647 296.97 700.138 297.774 702.207 299.569C704.445 301.511 706.146 304.337 706.175 307.362C706.256 315.633 689.923 329.354 684.02 335.257C696.657 348.029 708.434 365.368 717.177 381.075C748.285 436.96 752.596 503.908 735.097 564.797C724.557 601.472 703.3 634.209 677.222 661.736C671.569 667.703 665.789 673.736 659.487 679.024C646.818 689.656 632.909 698.444 618.476 706.455C581.209 725.5 541.304 734.609 499.393 732.007C491.083 731.491 482.807 730.18 474.542 729.188L474.676 667.257C486.079 669.323 497.363 670.933 508.97 671.16C550.991 671.983 596.857 657.201 627.558 627.709C614.391 615.705 601.779 603.028 588.858 590.754L541.88 546.617Q535.68 550.208 528.896 552.514C511.771 558.174 494.25 554.322 478.519 546.419C467.512 559.442 455.928 572.079 444.801 585.025Q437.717 577.693 430.555 570.438C440.752 557.232 452.208 544.527 463.812 532.544C459.19 525.397 455.541 517.879 453.612 509.551C449.226 490.607 454.098 473.082 464.14 456.868L403.939 397.243C393.299 386.76 377.018 368.438 364.615 361.351C351.929 354.101 336.606 351.198 322.668 347.22Q314.159 331.324 304.704 315.971C308.116 312.005 312.18 308.451 315.927 304.787C323.116 297.756 330.315 290.752 337.223 283.442ZM639.332 376.373C620.625 395.254 602.098 414.42 583.728 433.629C576.605 441.077 568.425 448.302 561.818 456.157C571.483 472.367 576.683 488.756 571.856 507.663C569.535 516.756 565.081 524.019 559.239 531.274L620.016 589.153C628.057 596.622 635.933 604.068 643.349 612.173C650.078 603.855 656.685 595.426 662.198 586.233C682.037 553.147 689.892 513.083 685.907 474.866Q685.593 472.001 685.181 469.149Q684.769 466.296 684.26 463.46Q683.751 460.623 683.145 457.805Q682.54 454.988 681.838 452.192Q681.136 449.397 680.339 446.627Q679.542 443.858 678.651 441.117Q677.759 438.376 676.775 435.668Q675.79 432.959 674.714 430.286Q673.637 427.612 672.47 424.977Q671.302 422.342 670.046 419.749Q668.789 417.155 667.444 414.606Q666.099 412.057 664.668 409.555Q663.237 407.054 661.721 404.603Q660.205 402.151 658.607 399.754Q657.008 397.356 655.328 395.014Q653.648 392.672 651.889 390.389C648.35 385.794 644.606 380.577 640.073 376.947C639.829 376.752 639.579 376.564 639.332 376.373Z"/>
</svg>
